<?xml version="1.0" encoding="UTF-8" standalone="no"?>
<!-- Created with Inkscape (http://www.inkscape.org/) -->

<svg
   xmlns:dc="http://purl.org/dc/elements/1.1/"
   xmlns:cc="http://creativecommons.org/ns#"
   xmlns:rdf="http://www.w3.org/1999/02/22-rdf-syntax-ns#"
   xmlns:svg="http://www.w3.org/2000/svg"
   xmlns="http://www.w3.org/2000/svg"
   xmlns:xlink="http://www.w3.org/1999/xlink"
   xmlns:sodipodi="http://sodipodi.sourceforge.net/DTD/sodipodi-0.dtd"
   xmlns:inkscape="http://www.inkscape.org/namespaces/inkscape"
   id="svg2876"
   version="1.1"
   inkscape:version="0.48.3.1 r9886"
   width="480"
   height="320"
   sodipodi:docname="lottokugel.svg"
   inkscape:export-filename="/home/mar/lottokugel.png"
   inkscape:export-xdpi="90"
   inkscape:export-ydpi="90">
  <title
     id="title3054">Lottokugeln</title>
  <metadata
     id="metadata2882">
    <rdf:RDF>
      <cc:Work
         rdf:about="">
        <dc:format>image/svg+xml</dc:format>
        <dc:type
           rdf:resource="http://purl.org/dc/dcmitype/StillImage" />
        <dc:title>Lottokugeln</dc:title>
        <cc:license
           rdf:resource="http://creativecommons.org/licenses/by-sa/3.0/" />
        <dc:creator>
          <cc:Agent>
            <dc:title>Markus Hackspacher</dc:title>
          </cc:Agent>
        </dc:creator>
      </cc:Work>
      <cc:License
         rdf:about="http://creativecommons.org/licenses/by-sa/3.0/">
        <cc:permits
           rdf:resource="http://creativecommons.org/ns#Reproduction" />
        <cc:permits
           rdf:resource="http://creativecommons.org/ns#Distribution" />
        <cc:requires
           rdf:resource="http://creativecommons.org/ns#Notice" />
        <cc:requires
           rdf:resource="http://creativecommons.org/ns#Attribution" />
        <cc:permits
           rdf:resource="http://creativecommons.org/ns#DerivativeWorks" />
        <cc:requires
           rdf:resource="http://creativecommons.org/ns#ShareAlike" />
      </cc:License>
    </rdf:RDF>
  </metadata>
  <defs
     id="defs2880">
    <linearGradient
       id="linearGradient3664">
      <stop
         style="stop-color:#f8ffff;stop-opacity:1;"
         offset="0"
         id="stop3666" />
      <stop
         style="stop-color:#cfd4cb;stop-opacity:0.99607843;"
         offset="1"
         id="stop3668" />
    </linearGradient>
    <inkscape:perspective
       sodipodi:type="inkscape:persp3d"
       inkscape:vp_x="0 : 0.5 : 1"
       inkscape:vp_y="0 : 1000 : 0"
       inkscape:vp_z="1 : 0.5 : 1"
       inkscape:persp3d-origin="0.5 : 0.33333333 : 1"
       id="perspective2884" />
    <radialGradient
       inkscape:collect="always"
       xlink:href="#linearGradient3664"
       id="radialGradient3674"
       cx="152.08333"
       cy="166.875"
       fx="152.08333"
       fy="166.875"
       r="67.708336"
       gradientTransform="matrix(1,0,0,0.95384616,0,7.7019228)"
       gradientUnits="userSpaceOnUse" />
    <radialGradient
       inkscape:collect="always"
       xlink:href="#linearGradient3664"
       id="radialGradient3678"
       gradientUnits="userSpaceOnUse"
       gradientTransform="matrix(1,0,0,0.95384616,0,7.7019228)"
       cx="152.08333"
       cy="166.875"
       fx="152.08333"
       fy="166.875"
       r="67.708336" />
    <radialGradient
       inkscape:collect="always"
       xlink:href="#linearGradient3664"
       id="radialGradient3682"
       gradientUnits="userSpaceOnUse"
       gradientTransform="matrix(1,0,0,0.95384616,0,7.7019228)"
       cx="152.08333"
       cy="166.875"
       fx="152.08333"
       fy="166.875"
       r="67.708336" />
    <radialGradient
       inkscape:collect="always"
       xlink:href="#linearGradient3664"
       id="radialGradient3686"
       gradientUnits="userSpaceOnUse"
       gradientTransform="matrix(1,0,0,0.95384616,0,7.7019228)"
       cx="152.08333"
       cy="166.875"
       fx="152.08333"
       fy="166.875"
       r="67.708336" />
    <radialGradient
       inkscape:collect="always"
       xlink:href="#linearGradient3664"
       id="radialGradient3690"
       gradientUnits="userSpaceOnUse"
       gradientTransform="matrix(1,0,0,0.95384616,0,7.7019228)"
       cx="152.08333"
       cy="166.875"
       fx="152.08333"
       fy="166.875"
       r="67.708336" />
    <radialGradient
       inkscape:collect="always"
       xlink:href="#linearGradient3664"
       id="radialGradient3694"
       gradientUnits="userSpaceOnUse"
       gradientTransform="matrix(1,0,0,0.95384616,0,7.7019228)"
       cx="152.08333"
       cy="166.875"
       fx="152.08333"
       fy="166.875"
       r="67.708336" />
    <radialGradient
       inkscape:collect="always"
       xlink:href="#linearGradient3664"
       id="radialGradient3698"
       gradientUnits="userSpaceOnUse"
       gradientTransform="matrix(1,0,0,0.95384616,0,7.7019228)"
       cx="152.08333"
       cy="166.875"
       fx="152.08333"
       fy="166.875"
       r="67.708336" />
    <radialGradient
       inkscape:collect="always"
       xlink:href="#linearGradient3664"
       id="radialGradient3702"
       gradientUnits="userSpaceOnUse"
       gradientTransform="matrix(1,0,0,0.95384616,0,7.7019228)"
       cx="152.08333"
       cy="166.875"
       fx="152.08333"
       fy="166.875"
       r="67.708336" />
    <radialGradient
       inkscape:collect="always"
       xlink:href="#linearGradient3664"
       id="radialGradient3708"
       gradientUnits="userSpaceOnUse"
       gradientTransform="matrix(1,0,0,0.95384616,0,7.7019228)"
       cx="152.08333"
       cy="166.875"
       fx="152.08333"
       fy="166.875"
       r="67.708336" />
    <radialGradient
       inkscape:collect="always"
       xlink:href="#linearGradient3664"
       id="radialGradient3712"
       gradientUnits="userSpaceOnUse"
       gradientTransform="matrix(1,0,0,0.95384616,0,7.7019228)"
       cx="152.08333"
       cy="166.875"
       fx="152.08333"
       fy="166.875"
       r="67.708336" />
    <radialGradient
       inkscape:collect="always"
       xlink:href="#linearGradient3664"
       id="radialGradient3716"
       gradientUnits="userSpaceOnUse"
       gradientTransform="matrix(1,0,0,0.95384616,0,7.7019228)"
       cx="152.08333"
       cy="166.875"
       fx="152.08333"
       fy="166.875"
       r="67.708336" />
    <radialGradient
       inkscape:collect="always"
       xlink:href="#linearGradient3664"
       id="radialGradient3720"
       gradientUnits="userSpaceOnUse"
       gradientTransform="matrix(1,0,0,0.95384616,0,7.7019228)"
       cx="152.08333"
       cy="166.875"
       fx="152.08333"
       fy="166.875"
       r="67.708336" />
    <radialGradient
       inkscape:collect="always"
       xlink:href="#linearGradient3664"
       id="radialGradient3724"
       gradientUnits="userSpaceOnUse"
       gradientTransform="matrix(1,0,0,0.95384616,0,7.7019228)"
       cx="152.08333"
       cy="166.875"
       fx="152.08333"
       fy="166.875"
       r="67.708336" />
    <radialGradient
       inkscape:collect="always"
       xlink:href="#linearGradient3664"
       id="radialGradient3728"
       gradientUnits="userSpaceOnUse"
       gradientTransform="matrix(1,0,0,0.95384616,0,7.7019228)"
       cx="152.08333"
       cy="166.875"
       fx="152.08333"
       fy="166.875"
       r="67.708336" />
    <radialGradient
       inkscape:collect="always"
       xlink:href="#linearGradient3664"
       id="radialGradient3732"
       gradientUnits="userSpaceOnUse"
       gradientTransform="matrix(1,0,0,0.95384616,0,7.7019228)"
       cx="152.08333"
       cy="166.875"
       fx="152.08333"
       fy="166.875"
       r="67.708336" />
    <radialGradient
       inkscape:collect="always"
       xlink:href="#linearGradient3664"
       id="radialGradient3736"
       gradientUnits="userSpaceOnUse"
       gradientTransform="matrix(1,0,0,0.95384616,0,7.7019228)"
       cx="152.08333"
       cy="166.875"
       fx="152.08333"
       fy="166.875"
       r="67.708336" />
    <radialGradient
       inkscape:collect="always"
       xlink:href="#linearGradient3664"
       id="radialGradient3740"
       gradientUnits="userSpaceOnUse"
       gradientTransform="matrix(1,0,0,0.95384616,0,7.7019228)"
       cx="152.08333"
       cy="166.875"
       fx="152.08333"
       fy="166.875"
       r="67.708336" />
    <radialGradient
       inkscape:collect="always"
       xlink:href="#linearGradient3664"
       id="radialGradient3744"
       gradientUnits="userSpaceOnUse"
       gradientTransform="matrix(1,0,0,0.95384616,0,7.7019228)"
       cx="152.08333"
       cy="166.875"
       fx="152.08333"
       fy="166.875"
       r="67.708336" />
    <radialGradient
       inkscape:collect="always"
       xlink:href="#linearGradient3664"
       id="radialGradient3748"
       gradientUnits="userSpaceOnUse"
       gradientTransform="matrix(1,0,0,0.95384616,0,7.7019228)"
       cx="152.08333"
       cy="166.875"
       fx="152.08333"
       fy="166.875"
       r="67.708336" />
    <radialGradient
       inkscape:collect="always"
       xlink:href="#linearGradient3664"
       id="radialGradient3752"
       gradientUnits="userSpaceOnUse"
       gradientTransform="matrix(1,0,0,0.95384616,0,7.7019228)"
       cx="152.08333"
       cy="166.875"
       fx="152.08333"
       fy="166.875"
       r="67.708336" />
    <radialGradient
       inkscape:collect="always"
       xlink:href="#linearGradient3664"
       id="radialGradient3756"
       gradientUnits="userSpaceOnUse"
       gradientTransform="matrix(1,0,0,0.95384616,0,7.7019228)"
       cx="152.08333"
       cy="166.875"
       fx="152.08333"
       fy="166.875"
       r="67.708336" />
    <radialGradient
       inkscape:collect="always"
       xlink:href="#linearGradient3664"
       id="radialGradient3760"
       gradientUnits="userSpaceOnUse"
       gradientTransform="matrix(1,0,0,0.95384616,0,7.7019228)"
       cx="152.08333"
       cy="166.875"
       fx="152.08333"
       fy="166.875"
       r="67.708336" />
    <inkscape:perspective
       id="perspective3770"
       inkscape:persp3d-origin="0.5 : 0.33333333 : 1"
       inkscape:vp_z="1 : 0.5 : 1"
       inkscape:vp_y="0 : 1000 : 0"
       inkscape:vp_x="0 : 0.5 : 1"
       sodipodi:type="inkscape:persp3d" />
    <radialGradient
       inkscape:collect="always"
       xlink:href="#linearGradient3664-9"
       id="radialGradient3760-5"
       gradientUnits="userSpaceOnUse"
       gradientTransform="matrix(1,0,0,0.95384616,0,7.7019228)"
       cx="152.08333"
       cy="166.875"
       fx="152.08333"
       fy="166.875"
       r="67.708336" />
    <linearGradient
       id="linearGradient3664-9">
      <stop
         style="stop-color:#ffffff;stop-opacity:1;"
         offset="0"
         id="stop3666-4" />
      <stop
         style="stop-color:#cfd4cb;stop-opacity:0.99607843;"
         offset="1"
         id="stop3668-0" />
    </linearGradient>
    <radialGradient
       r="67.708336"
       fy="166.875"
       fx="152.08333"
       cy="166.875"
       cx="152.08333"
       gradientTransform="matrix(1,0,0,0.95384616,0,7.7019228)"
       gradientUnits="userSpaceOnUse"
       id="radialGradient3779"
       xlink:href="#linearGradient3664-9"
       inkscape:collect="always" />
    <radialGradient
       inkscape:collect="always"
       xlink:href="#linearGradient3664-9"
       id="radialGradient3802"
       gradientUnits="userSpaceOnUse"
       gradientTransform="matrix(1,0,0,0.95384616,0,7.7019228)"
       cx="152.08333"
       cy="166.875"
       fx="152.08333"
       fy="166.875"
       r="67.708336" />
    <radialGradient
       inkscape:collect="always"
       xlink:href="#linearGradient3664"
       id="radialGradient3806"
       gradientUnits="userSpaceOnUse"
       gradientTransform="matrix(1,0,0,0.95384616,0,7.7019228)"
       cx="152.08333"
       cy="166.875"
       fx="152.08333"
       fy="166.875"
       r="67.708336" />
    <radialGradient
       inkscape:collect="always"
       xlink:href="#linearGradient3664"
       id="radialGradient3810"
       gradientUnits="userSpaceOnUse"
       gradientTransform="matrix(1,0,0,0.95384616,0,7.7019228)"
       cx="152.08333"
       cy="166.875"
       fx="152.08333"
       fy="166.875"
       r="67.708336" />
    <radialGradient
       inkscape:collect="always"
       xlink:href="#linearGradient3664"
       id="radialGradient3814"
       gradientUnits="userSpaceOnUse"
       gradientTransform="matrix(1,0,0,0.95384616,0,7.7019228)"
       cx="152.08333"
       cy="166.875"
       fx="152.08333"
       fy="166.875"
       r="67.708336" />
    <radialGradient
       inkscape:collect="always"
       xlink:href="#linearGradient3664"
       id="radialGradient3818"
       gradientUnits="userSpaceOnUse"
       gradientTransform="matrix(1,0,0,0.95384616,0,7.7019228)"
       cx="152.08333"
       cy="166.875"
       fx="152.08333"
       fy="166.875"
       r="67.708336" />
    <radialGradient
       inkscape:collect="always"
       xlink:href="#linearGradient3664"
       id="radialGradient3826"
       gradientUnits="userSpaceOnUse"
       gradientTransform="matrix(1,0,0,0.95384616,0,7.7019228)"
       cx="152.08333"
       cy="166.875"
       fx="152.08333"
       fy="166.875"
       r="67.708336" />
    <radialGradient
       inkscape:collect="always"
       xlink:href="#linearGradient3664"
       id="radialGradient3851"
       gradientUnits="userSpaceOnUse"
       gradientTransform="matrix(1,0,0,0.95384616,0,7.7019228)"
       cx="152.08333"
       cy="166.875"
       fx="152.08333"
       fy="166.875"
       r="67.708336" />
    <radialGradient
       inkscape:collect="always"
       xlink:href="#linearGradient3664"
       id="radialGradient2884"
       gradientUnits="userSpaceOnUse"
       gradientTransform="matrix(1,0,0,0.95384616,0,7.7019228)"
       cx="152.08333"
       cy="166.875"
       fx="152.08333"
       fy="166.875"
       r="67.708336" />
  </defs>
  <sodipodi:namedview
     pagecolor="#ffffff"
     bordercolor="#666666"
     borderopacity="1"
     objecttolerance="10"
     gridtolerance="10"
     guidetolerance="10"
     inkscape:pageopacity="0"
     inkscape:pageshadow="2"
     inkscape:window-width="1360"
     inkscape:window-height="703"
     id="namedview2878"
     showgrid="false"
     inkscape:zoom="0.96"
     inkscape:cx="397.12887"
     inkscape:cy="204.88728"
     inkscape:window-x="-3"
     inkscape:window-y="-3"
     inkscape:window-maximized="1"
     inkscape:current-layer="svg2876" />
  <path
     sodipodi:type="arc"
     style="fill:url(#radialGradient3818);fill-opacity:1;fill-rule:evenodd;stroke:none"
     id="path3820"
     sodipodi:cx="152.08333"
     sodipodi:cy="166.875"
     sodipodi:rx="67.708336"
     sodipodi:ry="64.583336"
     d="m 219.79166,166.875 a 67.708336,64.583336 0 1 1 -135.416668,0 67.708336,64.583336 0 1 1 135.416668,0 z"
     transform="matrix(0.76923078,0,0,0.75806453,71.554488,-121.08536)" />
  <path
     transform="matrix(0.76923078,0,0,0.75806453,144.47115,-138.79369)"
     d="m 219.79166,166.875 a 67.708336,64.583336 0 1 1 -135.416668,0 67.708336,64.583336 0 1 1 135.416668,0 z"
     sodipodi:ry="64.583336"
     sodipodi:rx="67.708336"
     sodipodi:cy="166.875"
     sodipodi:cx="152.08333"
     id="path3824"
     style="fill:url(#radialGradient3826);fill-opacity:1;fill-rule:evenodd;stroke:none"
     sodipodi:type="arc"
     inkscape:transform-center-x="79.166667"
     inkscape:transform-center-y="15.625" />
  <path
     transform="matrix(0.93846154,0,0,0.95161291,256.23397,-181.50874)"
     d="m 219.79166,166.875 a 67.708336,64.583336 0 1 1 -135.416668,0 67.708336,64.583336 0 1 1 135.416668,0 z"
     sodipodi:ry="64.583336"
     sodipodi:rx="67.708336"
     sodipodi:cy="166.875"
     sodipodi:cx="152.08333"
     id="path2882"
     style="fill:url(#radialGradient2884);fill-opacity:1;fill-rule:evenodd;stroke:none"
     sodipodi:type="arc" />
  <path
     transform="matrix(0.84615385,0,0,0.80645162,190.0641,-104.15995)"
     d="m 219.79166,166.875 a 67.708336,64.583336 0 1 1 -135.416668,0 67.708336,64.583336 0 1 1 135.416668,0 z"
     sodipodi:ry="64.583336"
     sodipodi:rx="67.708336"
     sodipodi:cy="166.875"
     sodipodi:cx="152.08333"
     id="path3676"
     style="fill:url(#radialGradient3678);fill-opacity:1;fill-rule:evenodd;stroke:none"
     sodipodi:type="arc" />
  <path
     transform="matrix(0.93846154,0,0,0.95161291,326.02565,-149.21707)"
     d="m 219.79166,166.875 a 67.708336,64.583336 0 1 1 -135.416668,0 67.708336,64.583336 0 1 1 135.416668,0 z"
     sodipodi:ry="64.583336"
     sodipodi:rx="67.708336"
     sodipodi:cy="166.875"
     sodipodi:cx="152.08333"
     id="path3800"
     style="fill:url(#radialGradient3802);fill-opacity:1;fill-rule:evenodd;stroke:none"
     sodipodi:type="arc" />
  <path
     sodipodi:type="arc"
     style="fill:url(#radialGradient3682);fill-opacity:1;fill-rule:evenodd;stroke:none"
     id="path3680"
     sodipodi:cx="152.08333"
     sodipodi:cy="166.875"
     sodipodi:rx="67.708336"
     sodipodi:ry="64.583336"
     d="m 219.79166,166.875 a 67.708336,64.583336 0 1 1 -135.416668,0 67.708336,64.583336 0 1 1 135.416668,0 z"
     transform="matrix(0.93846154,0,0,0.95161291,331.23397,-70.050405)" />
  <path
     transform="matrix(0.8923077,0,0,0.8951613,253.8782,-72.609212)"
     d="m 219.79166,166.875 a 67.708336,64.583336 0 1 1 -135.416668,0 67.708336,64.583336 0 1 1 135.416668,0 z"
     sodipodi:ry="64.583336"
     sodipodi:rx="67.708336"
     sodipodi:cy="166.875"
     sodipodi:cx="152.08333"
     id="path3684"
     style="fill:url(#radialGradient3686);fill-opacity:1;fill-rule:evenodd;stroke:none"
     sodipodi:type="arc" />
  <path
     transform="matrix(0.93846154,0,0,0.95161291,181.23397,-39.842071)"
     d="m 219.79166,166.875 a 67.708336,64.583336 0 1 1 -135.416668,0 67.708336,64.583336 0 1 1 135.416668,0 z"
     sodipodi:ry="64.583336"
     sodipodi:rx="67.708336"
     sodipodi:cy="166.875"
     sodipodi:cx="152.08333"
     id="path3688"
     style="fill:url(#radialGradient3690);fill-opacity:1;fill-rule:evenodd;stroke:none"
     sodipodi:type="arc" />
  <path
     sodipodi:type="arc"
     style="fill:url(#radialGradient3694);fill-opacity:1;fill-rule:evenodd;stroke:none"
     id="path3692"
     sodipodi:cx="152.08333"
     sodipodi:cy="166.875"
     sodipodi:rx="67.708336"
     sodipodi:ry="64.583336"
     d="m 219.79166,166.875 a 67.708336,64.583336 0 1 1 -135.416668,0 67.708336,64.583336 0 1 1 135.416668,0 z"
     transform="matrix(1.0615385,0,0,1.1451613,258.34936,-15.890457)" />
  <path
     transform="matrix(0.76923078,0,0,0.75806453,71.554488,-121.08536)"
     d="m 219.79166,166.875 a 67.708336,64.583336 0 1 1 -135.416668,0 67.708336,64.583336 0 1 1 135.416668,0 z"
     sodipodi:ry="64.583336"
     sodipodi:rx="67.708336"
     sodipodi:cy="166.875"
     sodipodi:cx="152.08333"
     id="path3816"
     style="fill:url(#radialGradient3818);fill-opacity:1;fill-rule:evenodd;stroke:none"
     sodipodi:type="arc" />
  <path
     sodipodi:type="arc"
     style="fill:url(#radialGradient3814);fill-opacity:1;fill-rule:evenodd;stroke:none"
     id="path3812"
     sodipodi:cx="152.08333"
     sodipodi:cy="166.875"
     sodipodi:rx="67.708336"
     sodipodi:ry="64.583336"
     d="m 219.79166,166.875 a 67.708336,64.583336 0 1 1 -135.416668,0 67.708336,64.583336 0 1 1 135.416668,0 z"
     transform="matrix(0.76923078,0,0,0.75806453,-9.6955127,-116.91869)" />
  <path
     sodipodi:type="arc"
     style="fill:url(#radialGradient3810);fill-opacity:1;fill-rule:evenodd;stroke:none"
     id="path3808"
     sodipodi:cx="152.08333"
     sodipodi:cy="166.875"
     sodipodi:rx="67.708336"
     sodipodi:ry="64.583336"
     d="m 219.79166,166.875 a 67.708336,64.583336 0 1 1 -135.416668,0 67.708336,64.583336 0 1 1 135.416668,0 z"
     transform="matrix(0.75384616,0,0,0.71774195,-95.89744,-97.169026)" />
  <path
     transform="matrix(0.76923078,0,0,0.75806453,-45.11218,-65.877021)"
     d="m 219.79166,166.875 a 67.708336,64.583336 0 1 1 -135.416668,0 67.708336,64.583336 0 1 1 135.416668,0 z"
     sodipodi:ry="64.583336"
     sodipodi:rx="67.708336"
     sodipodi:cy="166.875"
     sodipodi:cx="152.08333"
     id="path3804"
     style="fill:url(#radialGradient3806);fill-opacity:1;fill-rule:evenodd;stroke:none"
     sodipodi:type="arc" />
  <path
     sodipodi:type="arc"
     style="fill:url(#radialGradient3674);fill-opacity:1;fill-rule:evenodd;stroke:none"
     id="path2890"
     sodipodi:cx="152.08333"
     sodipodi:cy="166.875"
     sodipodi:rx="67.708336"
     sodipodi:ry="64.583336"
     d="m 219.79166,166.875 a 67.708336,64.583336 0 1 1 -135.416668,0 67.708336,64.583336 0 1 1 135.416668,0 z"
     transform="matrix(0.92307693,0,0,0.96774194,-101.84295,-49.82527)" />
  <path
     transform="matrix(0.87692308,0,0,0.83064517,8.3012767,-61.84308)"
     d="m 219.79166,166.875 a 67.708336,64.583336 0 1 1 -135.416668,0 67.708336,64.583336 0 1 1 135.416668,0 z"
     sodipodi:ry="64.583336"
     sodipodi:rx="67.708336"
     sodipodi:cy="166.875"
     sodipodi:cx="152.08333"
     id="path3696"
     style="fill:url(#radialGradient3698);fill-opacity:1;fill-rule:evenodd;stroke:none"
     sodipodi:type="arc" />
  <path
     sodipodi:type="arc"
     style="fill:url(#radialGradient3702);fill-opacity:1;fill-rule:evenodd;stroke:none"
     id="path3700"
     sodipodi:cx="152.08333"
     sodipodi:cy="166.875"
     sodipodi:rx="67.708336"
     sodipodi:ry="64.583336"
     d="m 219.79166,166.875 a 67.708336,64.583336 0 1 1 -135.416668,0 67.708336,64.583336 0 1 1 135.416668,0 z"
     transform="matrix(0.93846154,0,0,0.95161291,80.192303,-36.717071)" />
  <path
     transform="matrix(0.93846154,0,0,0.95161291,80.192303,-36.717071)"
     d="m 219.79166,166.875 a 67.708336,64.583336 0 1 1 -135.416668,0 67.708336,64.583336 0 1 1 135.416668,0 z"
     sodipodi:ry="64.583336"
     sodipodi:rx="67.708336"
     sodipodi:cy="166.875"
     sodipodi:cx="152.08333"
     id="path3704"
     style="fill:url(#radialGradient3702);fill-opacity:1;fill-rule:evenodd;stroke:none"
     sodipodi:type="arc" />
  <path
     transform="matrix(0.92307693,0,0,0.96774194,198.15705,42.883064)"
     d="m 219.79166,166.875 a 67.708336,64.583336 0 1 1 -135.416668,0 67.708336,64.583336 0 1 1 135.416668,0 z"
     sodipodi:ry="64.583336"
     sodipodi:rx="67.708336"
     sodipodi:cy="166.875"
     sodipodi:cx="152.08333"
     id="path3706"
     style="fill:url(#radialGradient3708);fill-opacity:1;fill-rule:evenodd;stroke:none"
     sodipodi:type="arc" />
  <path
     sodipodi:type="arc"
     style="fill:url(#radialGradient3712);fill-opacity:1;fill-rule:evenodd;stroke:none"
     id="path3710"
     sodipodi:cx="152.08333"
     sodipodi:cy="166.875"
     sodipodi:rx="67.708336"
     sodipodi:ry="64.583336"
     d="m 219.79166,166.875 a 67.708336,64.583336 0 1 1 -135.416668,0 67.708336,64.583336 0 1 1 135.416668,0 z"
     transform="matrix(1,0,0,1.0564516,283.33334,64.017137)" />
  <path
     sodipodi:type="arc"
     style="fill:url(#radialGradient3716);fill-opacity:1;fill-rule:evenodd;stroke:none"
     id="path3714"
     sodipodi:cx="152.08333"
     sodipodi:cy="166.875"
     sodipodi:rx="67.708336"
     sodipodi:ry="64.583336"
     d="m 219.79166,166.875 a 67.708336,64.583336 0 1 1 -135.416668,0 67.708336,64.583336 0 1 1 135.416668,0 z"
     transform="matrix(0.86153847,0,0,0.75806453,5.432687,16.414648)" />
  <path
     transform="matrix(0.93846154,0,0,0.95161291,88.52564,38.282929)"
     d="m 219.79166,166.875 a 67.708336,64.583336 0 1 1 -135.416668,0 67.708336,64.583336 0 1 1 135.416668,0 z"
     sodipodi:ry="64.583336"
     sodipodi:rx="67.708336"
     sodipodi:cy="166.875"
     sodipodi:cx="152.08333"
     id="path3718"
     style="fill:url(#radialGradient3720);fill-opacity:1;fill-rule:evenodd;stroke:none"
     sodipodi:type="arc" />
  <path
     sodipodi:type="arc"
     style="fill:url(#radialGradient3724);fill-opacity:1;fill-rule:evenodd;stroke:none"
     id="path3722"
     sodipodi:cx="152.08333"
     sodipodi:cy="166.875"
     sodipodi:rx="67.708336"
     sodipodi:ry="64.583336"
     d="m 219.79166,166.875 a 67.708336,64.583336 0 1 1 -135.416668,0 67.708336,64.583336 0 1 1 135.416668,0 z"
     transform="matrix(0.93846154,0,0,0.95161291,192.69231,102.86626)" />
  <path
     transform="matrix(0.98461536,0,0,0.99193553,286.71475,151.86659)"
     d="m 219.79166,166.875 a 67.708336,64.583336 0 1 1 -135.416668,0 67.708336,64.583336 0 1 1 135.416668,0 z"
     sodipodi:ry="64.583336"
     sodipodi:rx="67.708336"
     sodipodi:cy="166.875"
     sodipodi:cx="152.08333"
     id="path3726"
     style="fill:url(#radialGradient3728);fill-opacity:1;fill-rule:evenodd;stroke:none"
     sodipodi:type="arc"
     inkscape:transform-center-x="89.61749"
     inkscape:transform-center-y="-54.290251" />
  <path
     transform="matrix(0.90769231,0,0,0.85483872,-110.96155,22.140456)"
     d="m 219.79166,166.875 a 67.708336,64.583336 0 1 1 -135.416668,0 67.708336,64.583336 0 1 1 135.416668,0 z"
     sodipodi:ry="64.583336"
     sodipodi:rx="67.708336"
     sodipodi:cy="166.875"
     sodipodi:cx="152.08333"
     id="path3730"
     style="fill:url(#radialGradient3732);fill-opacity:1;fill-rule:evenodd;stroke:none"
     sodipodi:type="arc" />
  <path
     sodipodi:type="arc"
     style="fill:url(#radialGradient3736);fill-opacity:1;fill-rule:evenodd;stroke:none"
     id="path3734"
     sodipodi:cx="152.08333"
     sodipodi:cy="166.875"
     sodipodi:rx="67.708336"
     sodipodi:ry="64.583336"
     d="m 219.79166,166.875 a 67.708336,64.583336 0 1 1 -135.416668,0 67.708336,64.583336 0 1 1 135.416668,0 z"
     transform="matrix(0.90769231,0,0,0.85483872,-42.21155,53.390456)" />
  <path
     transform="matrix(0.93846154,0,0,0.95161291,38.525636,69.53293)"
     d="m 219.79166,166.875 a 67.708336,64.583336 0 1 1 -135.416668,0 67.708336,64.583336 0 1 1 135.416668,0 z"
     sodipodi:ry="64.583336"
     sodipodi:rx="67.708336"
     sodipodi:cy="166.875"
     sodipodi:cx="152.08333"
     id="path3738"
     style="fill:url(#radialGradient3740);fill-opacity:1;fill-rule:evenodd;stroke:none"
     sodipodi:type="arc" />
  <path
     sodipodi:type="arc"
     style="fill:url(#radialGradient3744);fill-opacity:1;fill-rule:evenodd;stroke:none"
     id="path3742"
     sodipodi:cx="152.08333"
     sodipodi:cy="166.875"
     sodipodi:rx="67.708336"
     sodipodi:ry="64.583336"
     d="m 219.79166,166.875 a 67.708336,64.583336 0 1 1 -135.416668,0 67.708336,64.583336 0 1 1 135.416668,0 z"
     transform="matrix(0.93846154,0,0,0.95161291,107.27564,117.44959)" />
  <path
     transform="matrix(0.93846154,0,0,0.95161291,167.6923,173.6996)"
     d="m 219.79166,166.875 a 67.708336,64.583336 0 1 1 -135.416668,0 67.708336,64.583336 0 1 1 135.416668,0 z"
     sodipodi:ry="64.583336"
     sodipodi:rx="67.708336"
     sodipodi:cy="166.875"
     sodipodi:cx="152.08333"
     id="path3746"
     style="fill:url(#radialGradient3748);fill-opacity:1;fill-rule:evenodd;stroke:none"
     sodipodi:type="arc" />
  <path
     sodipodi:type="arc"
     style="fill:url(#radialGradient3752);fill-opacity:1;fill-rule:evenodd;stroke:none"
     id="path3750"
     sodipodi:cx="152.08333"
     sodipodi:cy="166.875"
     sodipodi:rx="67.708336"
     sodipodi:ry="64.583336"
     d="m 219.79166,166.875 a 67.708336,64.583336 0 1 1 -135.416668,0 67.708336,64.583336 0 1 1 135.416668,0 z"
     transform="matrix(0.93846154,0,0,0.95161291,-121.89103,91.40793)" />
  <path
     transform="matrix(0.93846154,0,0,0.95161291,-40.64103,126.8246)"
     d="m 219.79166,166.875 a 67.708336,64.583336 0 1 1 -135.416668,0 67.708336,64.583336 0 1 1 135.416668,0 z"
     sodipodi:ry="64.583336"
     sodipodi:rx="67.708336"
     sodipodi:cy="166.875"
     sodipodi:cx="152.08333"
     id="path3754"
     style="fill:url(#radialGradient3756);fill-opacity:1;fill-rule:evenodd;stroke:none"
     sodipodi:type="arc" />
  <path
     sodipodi:type="arc"
     style="fill:url(#radialGradient3760);fill-opacity:1;fill-rule:evenodd;stroke:none"
     id="path3758"
     sodipodi:cx="152.08333"
     sodipodi:cy="166.875"
     sodipodi:rx="67.708336"
     sodipodi:ry="64.583336"
     d="m 219.79166,166.875 a 67.708336,64.583336 0 1 1 -135.416668,0 67.708336,64.583336 0 1 1 135.416668,0 z"
     transform="matrix(0.93846154,0,0,0.95161291,34.35897,168.49127)" />
  <path
     sodipodi:type="arc"
     style="fill:url(#radialGradient3779);fill-opacity:1;fill-rule:evenodd;stroke:none"
     id="path3758-9"
     sodipodi:cx="152.08333"
     sodipodi:cy="166.875"
     sodipodi:rx="67.708336"
     sodipodi:ry="64.583336"
     d="m 219.79166,166.875 a 67.708336,64.583336 0 1 1 -135.416668,0 67.708336,64.583336 0 1 1 135.416668,0 z"
     transform="matrix(0.93846154,0,0,0.95161291,-120.84935,179.9496)" />
  <path
     transform="matrix(0.83076924,0,0,0.83064517,108.02884,-72.259751)"
     d="m 219.79166,166.875 a 67.708336,64.583336 0 1 1 -135.416668,0 67.708336,64.583336 0 1 1 135.416668,0 z"
     sodipodi:ry="64.583336"
     sodipodi:rx="67.708336"
     sodipodi:cy="166.875"
     sodipodi:cx="152.08333"
     id="path3849"
     style="fill:url(#radialGradient3851);fill-opacity:1;fill-rule:evenodd;stroke:none"
     sodipodi:type="arc" />
</svg>
